<svg width="136" height="141" viewBox="0 0 136 141" fill="none" xmlns="http://www.w3.org/2000/svg">
<g filter="url(#filter0_di_18_2)">
<rect x="4" width="128" height="128" rx="30" fill="#F95007"/>
<path d="M46.1159 28.0732H42.9939V24.9512H46.1159V28.0732ZM46.1159 31.1951H42.9939V28.0732H46.1159V31.1951ZM46.1159 34.3171H42.9939V31.1951H46.1159V34.3171ZM46.1159 37.439H42.9939V34.3171H46.1159V37.439ZM46.1159 40.561H42.9939V37.439H46.1159V40.561ZM46.1159 43.6829H42.9939V40.561H46.1159V43.6829ZM46.1159 46.8049H42.9939V43.6829H46.1159V46.8049ZM46.1159 49.9268H42.9939V46.8049H46.1159V49.9268ZM46.1159 53.0488H42.9939V49.9268H46.1159V53.0488ZM46.1159 56.1707H42.9939V53.0488H46.1159V56.1707ZM46.1159 59.2927H42.9939V56.1707H46.1159V59.2927ZM46.1159 62.4146H42.9939V59.2927H46.1159V62.4146ZM46.1159 65.5366H42.9939V62.4146H46.1159V65.5366ZM46.1159 68.6585H42.9939V65.5366H46.1159V68.6585ZM46.1159 71.7805H42.9939V68.6585H46.1159V71.7805ZM49.2378 71.7805H46.1159V68.6585H49.2378V71.7805ZM49.2378 68.6585H46.1159V65.5366H49.2378V68.6585ZM49.2378 65.5366H46.1159V62.4146H49.2378V65.5366ZM49.2378 62.4146H46.1159V59.2927H49.2378V62.4146ZM49.2378 59.2927H46.1159V56.1707H49.2378V59.2927ZM49.2378 56.1707H46.1159V53.0488H49.2378V56.1707ZM49.2378 53.0488H46.1159V49.9268H49.2378V53.0488ZM52.3598 49.9268H49.2378V46.8049H52.3598V49.9268ZM52.3598 46.8049H49.2378V43.6829H52.3598V46.8049ZM52.3598 43.6829H49.2378V40.561H52.3598V43.6829ZM52.3598 40.561H49.2378V37.439H52.3598V40.561ZM52.3598 37.439H49.2378V34.3171H52.3598V37.439ZM52.3598 34.3171H49.2378V31.1951H52.3598V34.3171ZM52.3598 31.1951H49.2378V28.0732H52.3598V31.1951ZM52.3598 28.0732H49.2378V24.9512H52.3598V28.0732ZM55.4817 28.0732H52.3598V24.9512H55.4817V28.0732ZM58.6037 28.0732H55.4817V24.9512H58.6037V28.0732ZM58.6037 31.1951H55.4817V28.0732H58.6037V31.1951ZM58.6037 34.3171H55.4817V31.1951H58.6037V34.3171ZM58.6037 37.439H55.4817V34.3171H58.6037V37.439ZM58.6037 40.561H55.4817V37.439H58.6037V40.561ZM58.6037 43.6829H55.4817V40.561H58.6037V43.6829ZM58.6037 46.8049H55.4817V43.6829H58.6037V46.8049ZM58.6037 49.9268H55.4817V46.8049H58.6037V49.9268ZM55.4817 49.9268H52.3598V46.8049H55.4817V49.9268ZM55.4817 53.0488H52.3598V49.9268H55.4817V53.0488ZM55.4817 46.8049H52.3598V43.6829H55.4817V46.8049ZM55.4817 43.6829H52.3598V40.561H55.4817V43.6829ZM55.4817 40.561H52.3598V37.439H55.4817V40.561ZM55.4817 37.439H52.3598V34.3171H55.4817V37.439ZM55.4817 34.3171H52.3598V31.1951H55.4817V34.3171ZM55.4817 31.1951H52.3598V28.0732H55.4817V31.1951ZM49.2378 28.0732H46.1159V24.9512H49.2378V28.0732ZM49.2378 31.1951H46.1159V28.0732H49.2378V31.1951ZM49.2378 34.3171H46.1159V31.1951H49.2378V34.3171ZM49.2378 37.439H46.1159V34.3171H49.2378V37.439ZM49.2378 40.561H46.1159V37.439H49.2378V40.561ZM49.2378 43.6829H46.1159V40.561H49.2378V43.6829ZM49.2378 46.8049H46.1159V43.6829H49.2378V46.8049ZM49.2378 49.9268H46.1159V46.8049H49.2378V49.9268ZM46.1159 81.1463H42.9939V78.0244H46.1159V81.1463ZM46.1159 78.0244H42.9939V74.9024H46.1159V78.0244ZM46.1159 74.9024H42.9939V71.7805H46.1159V74.9024ZM55.4817 87.3902H52.3598V84.2683H55.4817V87.3902ZM55.4817 81.1463H52.3598V78.0244H55.4817V81.1463ZM55.4817 78.0244H52.3598V74.9024H55.4817V78.0244ZM55.4817 74.9024H52.3598V71.7805H55.4817V74.9024ZM55.4817 71.7805H52.3598V68.6585H55.4817V71.7805ZM55.4817 68.6585H52.3598V65.5366H55.4817V68.6585ZM55.4817 65.5366H52.3598V62.4146H55.4817V65.5366ZM55.4817 62.4146H52.3598V59.2927H55.4817V62.4146ZM58.6037 59.2927H55.4817V56.1707H58.6037V59.2927ZM58.6037 56.1707H55.4817V53.0488H58.6037V56.1707ZM58.6037 53.0488H55.4817V49.9268H58.6037V53.0488ZM58.6037 62.4146H55.4817V59.2927H58.6037V62.4146ZM58.6037 65.5366H55.4817V62.4146H58.6037V65.5366ZM58.6037 68.6585H55.4817V65.5366H58.6037V68.6585ZM58.6037 71.7805H55.4817V68.6585H58.6037V71.7805ZM58.6037 74.9024H55.4817V71.7805H58.6037V74.9024ZM58.6037 78.0244H55.4817V74.9024H58.6037V78.0244ZM58.6037 81.1463H55.4817V78.0244H58.6037V81.1463ZM58.6037 84.2683H55.4817V81.1463H58.6037V84.2683ZM58.6037 87.3902H55.4817V84.2683H58.6037V87.3902ZM58.6037 90.5122H55.4817V87.3902H58.6037V90.5122ZM55.4817 84.2683H52.3598V81.1463H55.4817V84.2683ZM58.6037 93.6341H55.4817V90.5122H58.6037V93.6341ZM58.6037 96.7561H55.4817V93.6341H58.6037V96.7561ZM52.3598 87.3902H49.2378V84.2683H52.3598V87.3902ZM52.3598 84.2683H49.2378V81.1463H52.3598V84.2683ZM52.3598 81.1463H49.2378V78.0244H52.3598V81.1463ZM49.2378 78.0244H46.1159V74.9024H49.2378V78.0244ZM49.2378 74.9024H46.1159V71.7805H49.2378V74.9024ZM49.2378 81.1463H46.1159V78.0244H49.2378V81.1463ZM49.2378 84.2683H46.1159V81.1463H49.2378V84.2683ZM52.3598 78.0244H49.2378V74.9024H52.3598V78.0244ZM52.3598 74.9024H49.2378V71.7805H52.3598V74.9024ZM52.3598 71.7805H49.2378V68.6585H52.3598V71.7805ZM52.3598 68.6585H49.2378V65.5366H52.3598V68.6585ZM52.3598 65.5366H49.2378V62.4146H52.3598V65.5366ZM52.3598 62.4146H49.2378V59.2927H52.3598V62.4146ZM52.3598 59.2927H49.2378V56.1707H52.3598V59.2927ZM52.3598 56.1707H49.2378V53.0488H52.3598V56.1707ZM52.3598 53.0488H49.2378V49.9268H52.3598V53.0488ZM55.4817 56.1707H52.3598V53.0488H55.4817V56.1707ZM55.4817 59.2927H52.3598V56.1707H55.4817V59.2927ZM80.4573 28.0732H77.3354V24.9512H80.4573V28.0732ZM80.4573 31.1951H77.3354V28.0732H80.4573V31.1951ZM80.4573 34.3171H77.3354V31.1951H80.4573V34.3171ZM80.4573 37.439H77.3354V34.3171H80.4573V37.439ZM80.4573 40.561H77.3354V37.439H80.4573V40.561ZM80.4573 43.6829H77.3354V40.561H80.4573V43.6829ZM80.4573 46.8049H77.3354V43.6829H80.4573V46.8049ZM80.4573 49.9268H77.3354V46.8049H80.4573V49.9268ZM80.4573 53.0488H77.3354V49.9268H80.4573V53.0488ZM80.4573 56.1707H77.3354V53.0488H80.4573V56.1707ZM80.4573 59.2927H77.3354V56.1707H80.4573V59.2927ZM80.4573 62.4146H77.3354V59.2927H80.4573V62.4146ZM80.4573 65.5366H77.3354V62.4146H80.4573V65.5366ZM80.4573 68.6585H77.3354V65.5366H80.4573V68.6585ZM80.4573 71.7805H77.3354V68.6585H80.4573V71.7805ZM83.5793 71.7805H80.4573V68.6585H83.5793V71.7805ZM83.5793 68.6585H80.4573V65.5366H83.5793V68.6585ZM83.5793 65.5366H80.4573V62.4146H83.5793V65.5366ZM83.5793 62.4146H80.4573V59.2927H83.5793V62.4146ZM83.5793 59.2927H80.4573V56.1707H83.5793V59.2927ZM83.5793 56.1707H80.4573V53.0488H83.5793V56.1707ZM83.5793 53.0488H80.4573V49.9268H83.5793V53.0488ZM86.7012 49.9268H83.5793V46.8049H86.7012V49.9268ZM86.7012 46.8049H83.5793V43.6829H86.7012V46.8049ZM86.7012 43.6829H83.5793V40.561H86.7012V43.6829ZM86.7012 40.561H83.5793V37.439H86.7012V40.561ZM86.7012 37.439H83.5793V34.3171H86.7012V37.439ZM86.7012 34.3171H83.5793V31.1951H86.7012V34.3171ZM86.7012 31.1951H83.5793V28.0732H86.7012V31.1951ZM86.7012 28.0732H83.5793V24.9512H86.7012V28.0732ZM89.8232 28.0732H86.7012V24.9512H89.8232V28.0732ZM92.9451 28.0732H89.8232V24.9512H92.9451V28.0732ZM92.9451 31.1951H89.8232V28.0732H92.9451V31.1951ZM92.9451 34.3171H89.8232V31.1951H92.9451V34.3171ZM92.9451 37.439H89.8232V34.3171H92.9451V37.439ZM92.9451 40.561H89.8232V37.439H92.9451V40.561ZM92.9451 43.6829H89.8232V40.561H92.9451V43.6829ZM92.9451 46.8049H89.8232V43.6829H92.9451V46.8049ZM92.9451 49.9268H89.8232V46.8049H92.9451V49.9268ZM89.8232 49.9268H86.7012V46.8049H89.8232V49.9268ZM89.8232 53.0488H86.7012V49.9268H89.8232V53.0488ZM89.8232 46.8049H86.7012V43.6829H89.8232V46.8049ZM89.8232 43.6829H86.7012V40.561H89.8232V43.6829ZM89.8232 40.561H86.7012V37.439H89.8232V40.561ZM89.8232 37.439H86.7012V34.3171H89.8232V37.439ZM89.8232 34.3171H86.7012V31.1951H89.8232V34.3171ZM89.8232 31.1951H86.7012V28.0732H89.8232V31.1951ZM83.5793 28.0732H80.4573V24.9512H83.5793V28.0732ZM83.5793 31.1951H80.4573V28.0732H83.5793V31.1951ZM83.5793 34.3171H80.4573V31.1951H83.5793V34.3171ZM83.5793 37.439H80.4573V34.3171H83.5793V37.439ZM83.5793 40.561H80.4573V37.439H83.5793V40.561ZM83.5793 43.6829H80.4573V40.561H83.5793V43.6829ZM83.5793 46.8049H80.4573V43.6829H83.5793V46.8049ZM83.5793 49.9268H80.4573V46.8049H83.5793V49.9268ZM80.4573 96.7561H77.3354V93.6341H80.4573V96.7561ZM80.4573 93.6341H77.3354V90.5122H80.4573V93.6341ZM80.4573 90.5122H77.3354V87.3902H80.4573V90.5122ZM80.4573 87.3902H77.3354V84.2683H80.4573V87.3902ZM80.4573 84.2683H77.3354V81.1463H80.4573V84.2683ZM80.4573 81.1463H77.3354V78.0244H80.4573V81.1463ZM80.4573 78.0244H77.3354V74.9024H80.4573V78.0244ZM80.4573 74.9024H77.3354V71.7805H80.4573V74.9024ZM89.8232 87.3902H86.7012V84.2683H89.8232V87.3902ZM89.8232 81.1463H86.7012V78.0244H89.8232V81.1463ZM89.8232 78.0244H86.7012V74.9024H89.8232V78.0244ZM89.8232 74.9024H86.7012V71.7805H89.8232V74.9024ZM89.8232 71.7805H86.7012V68.6585H89.8232V71.7805ZM89.8232 68.6585H86.7012V65.5366H89.8232V68.6585ZM89.8232 65.5366H86.7012V62.4146H89.8232V65.5366ZM89.8232 62.4146H86.7012V59.2927H89.8232V62.4146ZM92.9451 59.2927H89.8232V56.1707H92.9451V59.2927ZM92.9451 56.1707H89.8232V53.0488H92.9451V56.1707ZM92.9451 53.0488H89.8232V49.9268H92.9451V53.0488ZM92.9451 62.4146H89.8232V59.2927H92.9451V62.4146ZM92.9451 65.5366H89.8232V62.4146H92.9451V65.5366ZM92.9451 68.6585H89.8232V65.5366H92.9451V68.6585ZM92.9451 71.7805H89.8232V68.6585H92.9451V71.7805ZM92.9451 74.9024H89.8232V71.7805H92.9451V74.9024ZM92.9451 78.0244H89.8232V74.9024H92.9451V78.0244ZM92.9451 81.1463H89.8232V78.0244H92.9451V81.1463ZM92.9451 84.2683H89.8232V81.1463H92.9451V84.2683ZM89.8232 84.2683H86.7012V81.1463H89.8232V84.2683ZM86.7012 90.5122H83.5793V87.3902H86.7012V90.5122ZM86.7012 87.3902H83.5793V84.2683H86.7012V87.3902ZM86.7012 84.2683H83.5793V81.1463H86.7012V84.2683ZM86.7012 81.1463H83.5793V78.0244H86.7012V81.1463ZM83.5793 78.0244H80.4573V74.9024H83.5793V78.0244ZM83.5793 74.9024H80.4573V71.7805H83.5793V74.9024ZM83.5793 81.1463H80.4573V78.0244H83.5793V81.1463ZM83.5793 84.2683H80.4573V81.1463H83.5793V84.2683ZM83.5793 87.3902H80.4573V84.2683H83.5793V87.3902ZM83.5793 90.5122H80.4573V87.3902H83.5793V90.5122ZM83.5793 93.6341H80.4573V90.5122H83.5793V93.6341ZM86.7012 78.0244H83.5793V74.9024H86.7012V78.0244ZM86.7012 74.9024H83.5793V71.7805H86.7012V74.9024ZM86.7012 71.7805H83.5793V68.6585H86.7012V71.7805ZM86.7012 68.6585H83.5793V65.5366H86.7012V68.6585ZM86.7012 65.5366H83.5793V62.4146H86.7012V65.5366ZM86.7012 62.4146H83.5793V59.2927H86.7012V62.4146ZM86.7012 59.2927H83.5793V56.1707H86.7012V59.2927ZM86.7012 56.1707H83.5793V53.0488H86.7012V56.1707ZM86.7012 53.0488H83.5793V49.9268H86.7012V53.0488ZM89.8232 56.1707H86.7012V53.0488H89.8232V56.1707ZM89.8232 59.2927H86.7012V56.1707H89.8232V59.2927ZM64.8476 103H61.7256V99.878H64.8476V103ZM67.9695 103H64.8476V99.878H67.9695V103ZM71.0915 103H67.9695V99.878H71.0915V103ZM74.2134 103H71.0915V99.878H74.2134V103ZM77.3354 99.878H74.2134V96.7561H77.3354V99.878ZM74.2134 99.878H71.0915V96.7561H74.2134V99.878ZM71.0915 99.878H67.9695V96.7561H71.0915V99.878ZM67.9695 99.878H64.8476V96.7561H67.9695V99.878ZM64.8476 99.878H61.7256V96.7561H64.8476V99.878ZM61.7256 99.878H58.6037V96.7561H61.7256V99.878ZM61.7256 96.7561H58.6037V93.6341H61.7256V96.7561ZM61.7256 93.6341H58.6037V90.5122H61.7256V93.6341ZM64.8476 96.7561H61.7256V93.6341H64.8476V96.7561ZM67.9695 96.7561H64.8476V93.6341H67.9695V96.7561ZM71.0915 96.7561H67.9695V93.6341H71.0915V96.7561ZM74.2134 96.7561H71.0915V93.6341H74.2134V96.7561ZM77.3354 96.7561H74.2134V93.6341H77.3354V96.7561ZM77.3354 93.6341H74.2134V90.5122H77.3354V93.6341ZM74.2134 93.6341H71.0915V90.5122H74.2134V93.6341ZM71.0915 93.6341H67.9695V90.5122H71.0915V93.6341ZM67.9695 93.6341H64.8476V90.5122H67.9695V93.6341ZM64.8476 93.6341H61.7256V90.5122H64.8476V93.6341ZM61.7256 90.5122H58.6037V87.3902H61.7256V90.5122ZM64.8476 90.5122H61.7256V87.3902H64.8476V90.5122ZM77.3354 90.5122H74.2134V87.3902H77.3354V90.5122ZM74.2134 90.5122H71.0915V87.3902H74.2134V90.5122ZM77.3354 87.3902H74.2134V84.2683H77.3354V87.3902ZM61.7256 87.3902H58.6037V84.2683H61.7256V87.3902ZM55.4817 93.6341H52.3598V90.5122H55.4817V93.6341ZM55.4817 90.5122H52.3598V87.3902H55.4817V90.5122ZM52.3598 90.5122H49.2378V87.3902H52.3598V90.5122ZM49.2378 87.3902H46.1159V84.2683H49.2378V87.3902ZM46.1159 84.2683H42.9939V81.1463H46.1159V84.2683ZM61.7256 84.2683H58.6037V81.1463H61.7256V84.2683ZM64.8476 87.3902H61.7256V84.2683H64.8476V87.3902ZM67.9695 90.5122H64.8476V87.3902H67.9695V90.5122ZM71.0915 90.5122H67.9695V87.3902H71.0915V90.5122ZM74.2134 87.3902H71.0915V84.2683H74.2134V87.3902ZM77.3354 84.2683H74.2134V81.1463H77.3354V84.2683ZM67.9695 87.3902H64.8476V84.2683H67.9695V87.3902ZM71.0915 87.3902H67.9695V84.2683H71.0915V87.3902ZM64.8476 84.2683H61.7256V81.1463H64.8476V84.2683ZM61.7256 81.1463H58.6037V78.0244H61.7256V81.1463ZM74.2134 84.2683H71.0915V81.1463H74.2134V84.2683ZM77.3354 81.1463H74.2134V78.0244H77.3354V81.1463Z" fill="white"/>
</g>
<defs>
<filter id="filter0_di_18_2" x="0" y="0" width="136" height="141" filterUnits="userSpaceOnUse" color-interpolation-filters="sRGB">
<feFlood flood-opacity="0" result="BackgroundImageFix"/>
<feColorMatrix in="SourceAlpha" type="matrix" values="0 0 0 0 0 0 0 0 0 0 0 0 0 0 0 0 0 0 127 0" result="hardAlpha"/>
<feOffset dy="9"/>
<feGaussianBlur stdDeviation="2"/>
<feComposite in2="hardAlpha" operator="out"/>
<feColorMatrix type="matrix" values="0 0 0 0 0 0 0 0 0 0 0 0 0 0 0 0 0 0 0.25 0"/>
<feBlend mode="normal" in2="BackgroundImageFix" result="effect1_dropShadow_18_2"/>
<feBlend mode="normal" in="SourceGraphic" in2="effect1_dropShadow_18_2" result="shape"/>
<feColorMatrix in="SourceAlpha" type="matrix" values="0 0 0 0 0 0 0 0 0 0 0 0 0 0 0 0 0 0 127 0" result="hardAlpha"/>
<feMorphology radius="3" operator="erode" in="SourceAlpha" result="effect2_innerShadow_18_2"/>
<feOffset dy="4"/>
<feGaussianBlur stdDeviation="2.85"/>
<feComposite in2="hardAlpha" operator="arithmetic" k2="-1" k3="1"/>
<feColorMatrix type="matrix" values="0 0 0 0 0.743333 0 0 0 0 0.743333 0 0 0 0 0.743333 0 0 0 0.25 0"/>
<feBlend mode="normal" in2="shape" result="effect2_innerShadow_18_2"/>
</filter>
</defs>
</svg>
